<svg xmlns="http://www.w3.org/2000/svg" viewBox="0 0 180 180" width="180" height="180">
  <rect width="180" height="180" fill="#FAFBFC"/>
  <g transform="translate(50, 30)">
    <!-- Teal top part -->
    <path d="M40 5C22.879 5 10 17.879 10 35v25h15V35c0-8.284 6.716-15 15-15s15 6.716 15 15v25h15V35C70 17.879 57.121 5 40 5z" fill="#4DBCC3"/>
    <!-- Navy U outline -->
    <path d="M10 55v35c0 17.121 12.879 30 30 30s30-12.879 30-30V55H55v35c0 8.284-6.716 15-15 15s-15-6.716-15-15V55H10z" fill="#152D4D"/>
  </g>
</svg>
